# Blender v2.75 (sub 0) OBJ File: ''
# www.blender.org
mtllib exclamationmark.mtl
o main
v 0.460938 -2.460938 0.400000
v 0.266016 -2.330860 0.400000
v 0.580469 -2.671485 0.400000
v 0.278125 -1.485938 0.400000
v 0.526563 3.640626 0.400001
v -0.542188 3.640626 0.400001
v 0.000000 -2.287501 0.400000
v 0.620313 -2.956251 0.400000
v 0.579883 -3.242970 0.399999
v 0.263086 -3.595313 0.399999
v 0.458594 -3.459376 0.399999
v 0.000000 -3.640626 0.399999
v -0.579492 -3.237110 0.399999
v -0.620313 -2.956251 0.400000
v -0.266992 -2.332032 0.400000
v -0.580664 -2.677344 0.400000
v -0.461719 -2.465626 0.400000
v -0.261133 -3.594141 0.399999
v -0.457031 -3.454688 0.399999
v -0.293750 -1.485938 0.400000
v 0.460938 -2.460938 -0.400000
v 0.266016 -2.330860 -0.400000
v 0.580469 -2.671485 -0.400000
v 0.278125 -1.485938 -0.400000
v 0.526563 3.640626 -0.399999
v -0.542188 3.640626 -0.399999
v 0.000000 -2.287501 -0.400000
v 0.620313 -2.956251 -0.400001
v 0.579883 -3.242970 -0.400001
v 0.263086 -3.595313 -0.400001
v 0.458594 -3.459376 -0.400001
v 0.000000 -3.640626 -0.400001
v -0.579492 -3.237110 -0.400001
v -0.620313 -2.956251 -0.400001
v -0.266992 -2.332032 -0.400000
v -0.580664 -2.677344 -0.400000
v -0.461719 -2.465626 -0.400000
v -0.261133 -3.594141 -0.400001
v -0.457031 -3.454688 -0.400001
v -0.293750 -1.485938 -0.400000
vn 0.000000 0.000000 -1.000000
vn 0.000000 -0.000000 1.000000
vn 0.000000 -1.000000 0.000000
vn -0.160900 -0.987000 0.000000
vn 0.565700 -0.824600 0.000000
vn -0.990200 0.139600 -0.000000
vn -0.555100 -0.831800 0.000000
vn -0.869600 -0.493700 0.000000
vn 0.000000 1.000000 0.000000
vn -0.872300 0.488900 0.000000
vn -0.998800 0.048400 0.000000
vn 0.998800 0.048400 0.000000
vn -0.169700 0.985500 0.000000
vn 0.990000 -0.140700 0.000000
vn -0.570900 0.821000 0.000000
vn 0.164500 -0.986400 0.000000
vn 0.989600 0.143800 0.000000
vn 0.871800 -0.489800 0.000000
vn 0.871500 0.490500 0.000000
vn 0.175300 0.984500 0.000000
vn 0.579900 0.814700 0.000000
vn -0.990400 -0.138600 0.000000
usemtl none
s off
f 1//1 3//1 2//1
f 4//1 6//1 5//1
f 3//1 7//1 2//1
f 3//1 8//1 7//1
f 9//1 11//1 10//1
f 12//1 9//1 10//1
f 9//1 13//1 8//1
f 8//1 14//1 7//1
f 7//1 16//1 15//1
f 17//1 15//1 16//1
f 16//1 7//1 14//1
f 18//1 13//1 12//1
f 18//1 19//1 13//1
f 12//1 13//1 9//1
f 14//1 8//1 13//1
f 20//1 6//1 4//1
f 21//2 22//2 23//2
f 24//2 25//2 26//2
f 23//2 22//2 27//2
f 23//2 27//2 28//2
f 29//2 30//2 31//2
f 32//2 30//2 29//2
f 29//2 28//2 33//2
f 28//2 27//2 34//2
f 27//2 35//2 36//2
f 37//2 36//2 35//2
f 36//2 34//2 27//2
f 38//2 32//2 33//2
f 38//2 33//2 39//2
f 32//2 29//2 33//2
f 34//2 33//2 28//2
f 40//2 24//2 26//2
f 5//3 6//3 26//3 25//3
f 2//4 7//4 27//4 22//4
f 15//5 17//5 37//5 35//5
f 9//6 8//6 28//6 29//6
f 1//7 2//7 22//7 21//7
f 3//8 1//8 21//8 23//8
f 20//9 4//9 24//9 40//9
f 11//10 9//10 29//10 31//10
f 4//11 5//11 25//11 24//11
f 6//12 20//12 40//12 26//12
f 12//13 10//13 30//13 32//13
f 16//14 14//14 34//14 36//14
f 10//15 11//15 31//15 30//15
f 7//16 15//16 35//16 27//16
f 14//17 13//17 33//17 34//17
f 17//18 16//18 36//18 37//18
f 13//19 19//19 39//19 33//19
f 18//20 12//20 32//20 38//20
f 19//21 18//21 38//21 39//21
f 8//22 3//22 23//22 28//22
