# Blender v2.75 (sub 0) OBJ File: ''
# www.blender.org
o QuestionMark
v 1.672657 2.500782 0.400000
v 1.980469 3.199219 0.400001
v 1.509375 3.414551 0.400001
v 0.835156 2.823438 0.400000
v 1.024219 3.568360 0.400001
v 0.525000 3.660645 0.400001
v 0.011719 3.691407 0.400001
v 0.071094 2.921094 0.400001
v -0.037305 -0.970508 0.400000
v 0.654492 -0.742578 0.400000
v -0.156250 -0.656250 0.400000
v 0.515625 -0.324219 0.400000
v 0.259570 0.046484 0.400000
v 0.700781 -1.269532 0.400000
v -0.426953 3.662599 0.400001
v 0.002344 -1.371094 0.400000
v 0.775391 -2.505469 0.400000
v 0.581543 -2.380079 0.400000
v 0.891699 -2.714454 0.400000
v 0.930469 -3.007032 0.400000
v 0.310156 -2.338282 0.400000
v 0.558594 -3.650977 0.399999
v 0.757031 -3.529688 0.399999
v 0.887110 -3.318165 0.399999
v 0.310156 -3.691407 0.399999
v 0.002344 -1.536719 0.400000
v 0.700781 -1.536719 0.400000
v 0.057031 -2.380469 0.400000
v -0.259766 -2.716407 0.400000
v 0.059961 -3.646681 0.399999
v -0.259180 -3.296680 0.399999
v -0.300781 -3.007032 0.400000
v -0.816406 3.576173 0.400001
v -0.446484 2.856251 0.400001
v -0.827344 2.661719 0.400000
v -1.680762 2.976954 0.400001
v -1.061719 2.346485 0.400000
v -1.139844 1.919532 0.400000
v -1.947168 2.331641 0.400000
v -1.156641 3.432130 0.400001
v -1.447657 3.230469 0.400001
v -1.847266 2.677344 0.400000
v -1.980469 1.939844 0.400000
v -1.956055 1.598438 0.400000
v -1.071875 1.464844 0.400000
v -0.136719 -2.507032 0.400000
v -0.134375 -3.512501 0.399999
v -0.395899 -0.349024 0.400000
v -0.138281 0.430469 0.400000
v -1.586719 0.771875 0.400000
v -0.837500 1.074219 0.400000
v -1.882813 1.299219 0.400000
v -1.759961 1.028320 0.400000
v -0.797656 0.030469 0.400000
v 1.672657 2.500782 -0.400000
v 1.980469 3.199219 -0.400000
v 1.509375 3.414551 -0.399999
v 0.835156 2.823438 -0.400000
v 1.024219 3.568360 -0.399999
v 0.525000 3.660645 -0.399999
v 0.011719 3.691407 -0.399999
v 0.071094 2.921094 -0.400000
v -0.037305 -0.970508 -0.400000
v 0.654492 -0.742578 -0.400000
v -0.156250 -0.656250 -0.400000
v 0.515625 -0.324219 -0.400000
v 0.259570 0.046484 -0.400000
v 0.700781 -1.269532 -0.400000
v -0.426953 3.662599 -0.399999
v 0.002344 -1.371094 -0.400000
v 0.775391 -2.505469 -0.400000
v 0.581543 -2.380079 -0.400000
v 0.891699 -2.714454 -0.400000
v 0.930469 -3.007032 -0.400001
v 0.310156 -2.338282 -0.400000
v 0.558594 -3.650977 -0.400001
v 0.757031 -3.529688 -0.400001
v 0.887110 -3.318165 -0.400001
v 0.310156 -3.691407 -0.400001
v 0.002344 -1.536719 -0.400000
v 0.700781 -1.536719 -0.400000
v 0.057031 -2.380469 -0.400000
v -0.259766 -2.716407 -0.400000
v 0.059961 -3.646681 -0.400001
v -0.259180 -3.296680 -0.400001
v -0.300781 -3.007032 -0.400001
v -0.816406 3.576173 -0.399999
v -0.446484 2.856251 -0.400000
v -0.827344 2.661719 -0.400000
v -1.680762 2.976954 -0.400000
v -1.061719 2.346485 -0.400000
v -1.139844 1.919532 -0.400000
v -1.947168 2.331641 -0.400000
v -1.156641 3.432130 -0.399999
v -1.447657 3.230469 -0.399999
v -1.847266 2.677344 -0.400000
v -1.980469 1.939844 -0.400000
v -1.956055 1.598438 -0.400000
v -1.071875 1.464844 -0.400000
v -0.136719 -2.507032 -0.400000
v -0.134375 -3.512501 -0.400001
v -0.395899 -0.349023 -0.400000
v -0.138281 0.430469 -0.400000
v -1.586719 0.771875 -0.400000
v -0.837500 1.074219 -0.400000
v -1.882813 1.299219 -0.400000
v -1.759961 1.028321 -0.400000
v -0.797656 0.030469 -0.400000
vn 0.000000 0.000000 -1.000000
vn 0.000000 -0.000000 1.000000
vn -1.000000 0.000000 0.000000
vn 0.065500 -0.997900 0.000000
vn 0.865700 0.500600 0.000000
vn 0.990200 -0.139700 0.000000
vn 0.568200 0.822900 0.000000
vn 0.389900 -0.920900 0.000000
vn -0.822800 -0.568300 -0.000000
vn 0.569600 -0.821900 0.000000
vn 0.935200 0.354000 -0.000000
vn -0.152200 -0.988300 0.000000
vn -0.415700 -0.909500 0.000000
vn -0.694500 -0.719500 -0.000000
vn -0.996200 -0.087500 -0.000000
vn -0.454900 0.890600 0.000000
vn 0.216600 -0.976300 0.000000
vn -0.873800 -0.486300 0.000000
vn 0.686700 0.727000 0.000000
vn 0.164400 -0.986400 0.000000
vn -0.983700 0.180000 0.000000
vn -0.990400 0.138000 0.000000
vn 0.126800 0.991900 0.000000
vn -0.949100 -0.315000 0.000000
vn -0.181800 -0.983300 0.000000
vn -0.851800 0.523800 0.000000
vn 0.359500 0.933100 0.000000
vn 0.989800 0.142200 -0.000000
vn 0.788500 0.615100 0.000000
vn 0.000000 1.000000 0.000000
vn 0.996400 -0.084700 0.000000
vn 0.546900 -0.837200 0.000000
vn 0.176000 0.984400 0.000000
vn -0.160600 0.987000 0.000000
vn -0.991300 -0.131400 0.000000
vn -0.059800 -0.998200 0.000000
vn 0.828600 0.559800 0.000000
vn 0.874100 -0.485800 0.000000
vn -0.521500 0.853200 0.000000
vn 0.997500 0.071300 0.000000
vn 0.862100 -0.506700 0.000000
vn -0.124300 0.992200 0.000000
vn 0.910700 0.413000 0.000000
vn -0.915100 0.403300 0.000000
vn -0.989000 -0.147800 -0.000000
vn -0.677300 -0.735700 -0.000000
vn -0.543100 -0.839600 0.000000
vn 0.960700 -0.277600 0.000000
vn -0.857500 -0.514500 -0.000000
vn 0.736100 -0.676900 0.000000
vn 0.971300 0.237800 0.000000
vn -0.302200 -0.953200 0.000000
vn 0.684800 0.728800 0.000000
vn 0.995100 0.098500 0.000000
vn -0.802500 0.596700 0.000000
vn 1.000000 0.000000 0.000000
usemtl none
s off
f 1//1 3//1 2//1
f 4//1 5//1 3//1
f 4//1 3//1 1//1
f 5//1 4//1 6//1
f 6//1 8//1 7//1
f 9//1 11//1 10//1
f 10//1 11//1 12//1
f 13//1 12//1 11//1
f 10//1 14//1 9//1
f 8//1 15//1 7//1
f 6//1 4//1 8//1
f 14//1 16//1 9//1
f 17//1 19//1 18//1
f 20//1 21//1 19//1
f 22//1 24//1 23//1
f 24//1 25//1 20//1
f 21//1 18//1 19//1
f 26//1 16//1 27//1
f 24//1 22//1 25//1
f 21//1 29//1 28//1
f 30//1 31//1 25//1
f 20//1 25//1 31//1
f 20//1 32//1 21//1
f 27//1 16//1 14//1
f 15//1 34//1 33//1
f 34//1 35//1 33//1
f 36//1 35//1 37//1
f 38//1 39//1 37//1
f 35//1 40//1 33//1
f 36//1 41//1 35//1
f 37//1 42//1 36//1
f 43//1 39//1 38//1
f 38//1 44//1 43//1
f 42//1 37//1 39//1
f 40//1 35//1 41//1
f 38//1 45//1 44//1
f 28//1 29//1 46//1
f 47//1 31//1 30//1
f 20//1 31//1 32//1
f 29//1 21//1 32//1
f 13//1 11//1 48//1
f 49//1 13//1 48//1
f 50//1 45//1 51//1
f 52//1 44//1 45//1
f 53//1 52//1 45//1
f 49//1 48//1 54//1
f 50//1 51//1 54//1
f 53//1 45//1 50//1
f 54//1 51//1 49//1
f 34//1 15//1 8//1
f 55//2 56//2 57//2
f 58//2 57//2 59//2
f 58//2 55//2 57//2
f 59//2 60//2 58//2
f 60//2 61//2 62//2
f 63//2 64//2 65//2
f 64//2 66//2 65//2
f 67//2 65//2 66//2
f 64//2 63//2 68//2
f 62//2 61//2 69//2
f 60//2 62//2 58//2
f 68//2 63//2 70//2
f 71//2 72//2 73//2
f 74//2 73//2 75//2
f 76//2 77//2 78//2
f 78//2 74//2 79//2
f 75//2 73//2 72//2
f 80//2 81//2 70//2
f 78//2 79//2 76//2
f 75//2 82//2 83//2
f 84//2 79//2 85//2
f 74//2 85//2 79//2
f 74//2 75//2 86//2
f 81//2 68//2 70//2
f 69//2 87//2 88//2
f 88//2 87//2 89//2
f 90//2 91//2 89//2
f 92//2 91//2 93//2
f 89//2 87//2 94//2
f 90//2 89//2 95//2
f 91//2 90//2 96//2
f 97//2 92//2 93//2
f 92//2 97//2 98//2
f 96//2 93//2 91//2
f 94//2 95//2 89//2
f 92//2 98//2 99//2
f 82//2 100//2 83//2
f 101//2 84//2 85//2
f 74//2 86//2 85//2
f 83//2 86//2 75//2
f 67//2 102//2 65//2
f 103//2 102//2 67//2
f 104//2 105//2 99//2
f 106//2 99//2 98//2
f 107//2 99//2 106//2
f 103//2 108//2 102//2
f 104//2 108//2 105//2
f 107//2 104//2 99//2
f 108//2 103//2 105//2
f 88//2 62//2 69//2
f 27//3 14//3 68//3 81//3
f 7//4 15//4 69//4 61//4
f 31//5 47//5 101//5 85//5
f 29//6 32//6 86//6 83//6
f 47//7 30//7 84//7 101//7
f 33//8 40//8 94//8 87//8
f 12//9 13//9 67//9 66//9
f 40//10 41//10 95//10 94//10
f 11//11 9//11 63//11 65//11
f 18//12 21//12 75//12 72//12
f 2//13 3//13 57//13 56//13
f 13//14 49//14 103//14 67//14
f 14//15 10//15 64//15 68//15
f 35//16 34//16 88//16 89//16
f 15//17 33//17 87//17 69//17
f 19//18 17//18 71//18 73//18
f 54//19 48//19 102//19 108//19
f 21//20 28//20 82//20 75//20
f 38//21 37//21 91//21 92//21
f 24//22 20//22 74//22 78//22
f 8//23 4//23 58//23 62//23
f 10//24 12//24 66//24 64//24
f 5//25 6//25 60//25 59//25
f 23//26 24//26 78//26 77//26
f 4//27 1//27 55//27 58//27
f 32//28 31//28 85//28 86//28
f 48//29 11//29 65//29 102//29
f 26//30 27//30 81//30 80//30
f 39//31 43//31 97//31 93//31
f 28//32 46//32 100//32 82//32
f 30//33 25//33 79//33 84//33
f 25//34 22//34 76//34 79//34
f 20//35 19//35 73//35 74//35
f 6//36 7//36 61//36 60//36
f 53//37 50//37 104//37 107//37
f 36//38 42//38 96//38 90//38
f 22//39 23//39 77//39 76//39
f 43//40 44//40 98//40 97//40
f 46//41 29//41 83//41 100//41
f 34//42 8//42 62//42 88//42
f 52//43 53//43 107//43 106//43
f 1//44 2//44 56//44 55//44
f 45//45 38//45 92//45 99//45
f 49//46 51//46 105//46 103//46
f 17//47 18//47 72//47 71//47
f 42//48 39//48 93//48 96//48
f 51//49 45//49 99//49 105//49
f 41//50 36//50 90//50 95//50
f 44//51 52//51 106//51 98//51
f 3//52 5//52 59//52 57//52
f 50//53 54//53 108//53 104//53
f 9//54 16//54 70//54 63//54
f 37//55 35//55 89//55 91//55
f 16//56 26//56 80//56 70//56
